SplineFontDB: 3.0
FontName: NyStormningSv
FullName: Ny Stormning Svart
FamilyName: Ny Stormning
Weight: Svart
Copyright: Copyright (c) 2016, Mew Too/Cannot Into Space Fonts, Robert Jablonski/Cannot Into Space Fonts, All Rights Reserved.
Version: 0.90
ItalicAngle: 0
UnderlinePosition: -100
UnderlineWidth: 50
Ascent: 800
Descent: 200
InvalidEm: 0
sfntRevision: 0x0000e666
LayerCount: 2
Layer: 0 0 "Back" 1
Layer: 1 0 "Fore" 0
XUID: [1021 908 -2008021153 9976829]
StyleMap: 0x0000
FSType: 0
OS2Version: 4
OS2_WeightWidthSlopeOnly: 0
OS2_UseTypoMetrics: 1
CreationTime: 1422214609
ModificationTime: 1452318554
PfmFamily: 33
TTFWeight: 900
TTFWidth: 5
LineGap: 90
VLineGap: 0
Panose: 2 0 5 3 0 0 0 0 0 0
OS2TypoAscent: 800
OS2TypoAOffset: 0
OS2TypoDescent: -200
OS2TypoDOffset: 0
OS2TypoLinegap: 90
OS2WinAscent: 904
OS2WinAOffset: 0
OS2WinDescent: 1
OS2WinDOffset: 0
HheadAscent: 904
HheadAOffset: 0
HheadDescent: -1
HheadDOffset: 0
OS2SubXSize: 650
OS2SubYSize: 699
OS2SubXOff: 0
OS2SubYOff: 140
OS2SupXSize: 650
OS2SupYSize: 699
OS2SupXOff: 0
OS2SupYOff: 479
OS2StrikeYSize: 49
OS2StrikeYPos: 258
OS2CapHeight: 860
OS2XHeight: 860
OS2FamilyClass: 2048
OS2Vendor: 'CiSf'
OS2CodePages: 00000001.00000000
OS2UnicodeRanges: 00000007.00000000.00000000.00000000
Lookup: 258 0 0 "'kern' Horizontal Kerning in Latin lookup 0" { "'kern' Horizontal Kerning in Latin lookup 0-1" [100,10,2] } ['kern' ('DFLT' <'dflt' > 'latn' <'dflt' > ) ]
MarkAttachClasses: 1
DEI: 91125

StartChar: .notdef
Encoding: 65536 -1 0
Width: 445
Flags: W
HStem: 0 70<78 358> 473 70<78 358>
VStem: 8 70<70 473> 358 70<70 473>
LayerCount: 2
Fore
SplineSet
78 473 m 1
 78 70 l 1
 358 70 l 1
 358 473 l 1
 78 473 l 1
428 0 m 1
 8 0 l 1
 8 543 l 1
 428 543 l 1
 428 0 l 1
EndSplineSet
EndChar

StartChar: comma
Encoding: 44 44 2
Width: 210
Flags: W
HStem: 304 196<41.9296 158.838>
VStem: 6 190<341.971 462.029>
LayerCount: 2
Fore
SplineSet
100 304 m 0
 48 304 6 349 6 402 c 0
 6 455 48 500 100 500 c 0
 152 500 196 455 196 402 c 0
 196 349 152 304 100 304 c 0
EndSplineSet
EndChar

StartChar: period
Encoding: 46 46 3
Width: 212
Flags: W
HStem: 156 197<43.5458 160.454> 415 197<44.5458 161.454>
VStem: 7 190<192.13 316.277 453.588 574.029>
LayerCount: 2
Fore
SplineSet
102 156 m 0
 50 156 7 201 7 254 c 0
 7 307 50 353 102 353 c 0
 154 353 197 307 197 254 c 0
 197 201 154 156 102 156 c 0
103 415 m 0
 51 415 8 461 8 514 c 0
 8 567 51 612 103 612 c 0
 155 612 198 567 198 514 c 0
 198 461 155 415 103 415 c 0
EndSplineSet
EndChar

StartChar: zero
Encoding: 48 48 4
Width: 832
Flags: W
HStem: 0 21G<332 498> 361 140<245.364 332 498 585.524> 807 20G<242 586>
VStem: 8 154<559.816 644.541> 332 166<0 363.252 501 695> 668 154<559.488 644.634>
CounterMasks: 1 1c
LayerCount: 2
Fore
SplineSet
498 695 m 1
 498 501 l 1
 591 510 667 549 668 601 c 1
 664 649 628 670 498 695 c 1
498 361 m 1
 498 0 l 1
 332 0 l 1
 332 361 l 1
 172 383 10 502 8 596 c 0
 8 597 l 1
 13 696 142 819 342 827 c 1
 486 827 l 1
 686 819 817 696 822 597 c 0
 822 596 l 0
 820 501 656 382 498 361 c 1
162 601 m 1
 163 548 241 509 332 501 c 1
 332 695 l 1
 200 669 166 648 162 601 c 1
EndSplineSet
EndChar

StartChar: one
Encoding: 49 49 5
Width: 426
Flags: W
HStem: 0 21G<13 170> 744 116<170 415>
VStem: 13 157<0 744>
LayerCount: 2
Fore
SplineSet
170 744 m 1
 170 0 l 1
 13 0 l 1
 13 860 l 1
 415 860 l 1
 415 744 l 1
 170 744 l 1
EndSplineSet
EndChar

StartChar: two
Encoding: 50 50 6
Width: 429
Flags: W
HStem: 0 21G<13 170> 603 114<170 416> 744 116<170 416>
VStem: 13 157<0 603 717 744>
LayerCount: 2
Fore
SplineSet
170 0 m 1
 13 0 l 1
 13 860 l 1
 416 860 l 1
 416 744 l 1
 170 744 l 1
 170 717 l 1
 416 717 l 1
 416 603 l 1
 170 603 l 1
 170 0 l 1
EndSplineSet
EndChar

StartChar: three
Encoding: 51 51 7
Width: 430
Flags: W
HStem: 0 21G<13 170> 466 117<170 415> 607 111<170 415> 744 116<170 415>
VStem: 13 402<466 583 607 718 744 860> 13 157<0 466 583 607 718 744>
LayerCount: 2
Fore
SplineSet
170 0 m 1xf4
 13 0 l 1xf4
 13 860 l 1
 415 860 l 1
 415 744 l 1xf8
 170 744 l 1
 170 718 l 1xf4
 415 718 l 1
 415 607 l 1xf8
 170 607 l 1
 170 583 l 1xf4
 415 583 l 1
 415 466 l 1xf8
 170 466 l 1
 170 0 l 1xf4
EndSplineSet
EndChar

StartChar: four
Encoding: 52 52 8
Width: 432
Flags: W
HStem: 0 21G<13 170> 326 117<170 415> 466 117<170 415> 607 111<170 415> 744 116<170 415>
VStem: 13 402<326 443 466 583 607 718 744 860> 13 157<0 326 443 466 583 607 718 744>
LayerCount: 2
Fore
SplineSet
170 0 m 1xfa
 13 0 l 1xfa
 13 860 l 1
 415 860 l 1
 415 744 l 1xfc
 170 744 l 1
 170 718 l 1xfa
 415 718 l 1
 415 607 l 1xfc
 170 607 l 1
 170 583 l 1xfa
 415 583 l 1
 415 466 l 1xfc
 170 466 l 1
 170 443 l 1xfa
 415 443 l 1
 415 326 l 1xfc
 170 326 l 1
 170 0 l 1xfa
EndSplineSet
EndChar

StartChar: five
Encoding: 53 53 9
Width: 513
Flags: W
HStem: 0 21G<13 179> 361 140<179 267.4> 807 20G<13.9758 268>
VStem: 13 166<0 363.252 501 695> 349 154<559.488 644.634>
LayerCount: 2
Fore
SplineSet
178 695 m 1
 178 501 l 1
 271 510 348 550 349 601 c 1
 345 649 308 670 178 695 c 1
13 0 m 1
 14 827 l 1
 168 827 l 1
 368 819 498 696 503 597 c 0
 503 596 l 0
 501 501 337 382 179 361 c 1
 179 0 l 1
 13 0 l 1
EndSplineSet
EndChar

StartChar: six
Encoding: 54 54 10
Width: 513
Flags: W
HStem: 0 21G<13 179> 301 79<258 359> 807 20G<13.9758 268>
VStem: 13 166<0 301 501 695> 349 154<558.06 644.634>
LayerCount: 2
Fore
SplineSet
13 0 m 1
 14 827 l 1
 168 827 l 1
 368 819 498 696 503 597 c 0
 503 596 l 1
 501 517 386 422 258 380 c 1
 359 380 l 1
 359 301 l 1
 179 301 l 1
 179 0 l 1
 13 0 l 1
178 695 m 1
 178 501 l 1
 271 510 348 550 349 601 c 1
 345 649 308 670 178 695 c 1
EndSplineSet
EndChar

StartChar: seven
Encoding: 55 55 11
Width: 512
Flags: W
HStem: 0 21G<13 179> 213 79<179 359> 301 79<258 359> 807 20G<13.9758 268>
VStem: 13 166<0 213 292 301 501 695> 349 154<558.06 644.634>
LayerCount: 2
Fore
SplineSet
13 0 m 1
 14 827 l 1
 168 827 l 1
 368 819 498 696 503 597 c 0
 503 596 l 1
 501 517 386 422 258 380 c 1
 359 380 l 1
 359 301 l 1
 179 301 l 1
 179 292 l 1
 359 292 l 1
 359 213 l 1
 179 213 l 1
 179 0 l 1
 13 0 l 1
178 695 m 1
 178 501 l 1
 271 510 348 550 349 601 c 1
 345 649 308 670 178 695 c 1
EndSplineSet
EndChar

StartChar: eight
Encoding: 56 56 12
Width: 512
Flags: W
HStem: 0 21G<13 179> 125 79<179 359> 213 79<179 359> 301 79<258 359> 807 20G<13.9758 268>
VStem: 13 346<125 204 213 292 301 380> 13 166<0 125 204 213 292 301 501 695> 349 154<558.06 644.634>
LayerCount: 2
Fore
SplineSet
13 0 m 1xfa
 14 827 l 1
 168 827 l 1
 368 819 498 696 503 597 c 0
 503 596 l 1xfb
 501 517 386 422 258 380 c 1
 359 380 l 1
 359 301 l 1xfc
 179 301 l 1
 179 292 l 1xfa
 359 292 l 1
 359 213 l 1xfc
 179 213 l 1
 179 204 l 1xfa
 359 204 l 1
 359 125 l 1xfc
 179 125 l 1
 179 0 l 1
 13 0 l 1xfa
178 695 m 1
 178 501 l 1
 271 510 348 550 349 601 c 1
 345 649 308 670 178 695 c 1
EndSplineSet
EndChar

StartChar: nine
Encoding: 57 57 13
Width: 512
Flags: W
HStem: 0 21G<13 179> 44 73<179 359> 125 79<179 359> 213 79<179 359> 301 79<258 359> 807 20G<13.9758 268>
VStem: 13 346<44 117 125 204 213 292 301 380> 13 166<0 44 117 125 204 213 292 301 501 695> 349 154<558.06 644.634>
LayerCount: 2
Fore
SplineSet
13 0 m 1xfd
 14 827 l 1
 168 827 l 1
 368 819 498 696 503 597 c 0
 503 596 l 1xfd80
 501 517 386 422 258 380 c 1
 359 380 l 1
 359 301 l 1xfe
 179 301 l 1
 179 292 l 1xfd
 359 292 l 1
 359 213 l 1xfe
 179 213 l 1
 179 204 l 1xfd
 359 204 l 1
 359 125 l 1xfe
 179 125 l 1
 179 117 l 1xfd
 359 117 l 1
 359 44 l 1xfe
 179 44 l 1
 179 0 l 1
 13 0 l 1xfd
178 695 m 1
 178 501 l 1
 271 510 348 550 349 601 c 1
 345 649 308 670 178 695 c 1
EndSplineSet
EndChar

StartChar: colon
Encoding: 58 58 14
Width: 745
Flags: W
HStem: 1 21G<183.071 276 462 552.929>
LayerCount: 2
Fore
SplineSet
561 1 m 1
 462 2 l 1
 276 2 l 1
 175 1 l 1
 288 281 l 1
 8 168 l 1
 8 555 l 1
 288 442 l 1
 175 722 l 1
 276 721 l 1
 460 721 l 1
 561 722 l 1
 448 442 l 1
 728 555 l 1
 728 168 l 1
 448 281 l 1
 561 1 l 1
EndSplineSet
EndChar

StartChar: at
Encoding: 64 64 15
Width: 847
Flags: W
HStem: 0 21G<13 170 487 644> 840 20G<13 238.308>
VStem: 13 157<0 568 692 752> 487 157<0 729>
LayerCount: 2
Fore
SplineSet
644 729 m 1
 644 0 l 1
 487 0 l 1
 487 748 l 1
 325 675 l 1
 313 714 l 1
 170 752 l 1
 170 692 l 1
 321 653 l 1
 284 537 l 1
 170 568 l 1
 170 0 l 1
 13 0 l 1
 13 860 l 1
 161 860 l 1
 362 808 l 1
 570 905 l 1
 842 773 l 1
 807 658 l 1
 644 729 l 1
EndSplineSet
EndChar

StartChar: A
Encoding: 65 65 16
Width: 373
Flags: W
HStem: 0 21G<12 164> 840 20G<12 235>
VStem: 12 152<0 555 676 735>
LayerCount: 2
Fore
SplineSet
12 0 m 1
 12 860 l 1
 155 860 l 1
 367 807 l 1
 332 692 l 1
 164 735 l 1
 164 676 l 1
 320 638 l 1
 283 525 l 1
 164 555 l 1
 164 0 l 1
 12 0 l 1
EndSplineSet
EndChar

StartChar: B
Encoding: 66 66 17
Width: 537
Flags: W
HStem: 0 21G<12 184.897> 827 20G<12 184.897>
VStem: 12 152<139 378 449 688>
LayerCount: 2
Fore
SplineSet
164 139 m 1
 340 261 l 1
 164 378 l 1
 164 139 l 1
164 688 m 1
 164 449 l 1
 340 566 l 1
 164 688 l 1
535 271 m 1
 157 -0 l 1
 12 0 l 1
 12 847 l 1
 157 847 l 1
 535 576 l 1
 312 424 l 1
 535 271 l 1
EndSplineSet
EndChar

StartChar: C
Encoding: 67 67 18
Width: 346
Flags: W
VStem: 4 327
LayerCount: 2
Fore
SplineSet
4 430 m 1
 331 864 l 1
 330 643 l 1
 173 430 l 1
 330 217 l 1
 331 -4 l 1
 4 430 l 1
EndSplineSet
EndChar

StartChar: D
Encoding: 68 68 19
Width: 666
Flags: W
HStem: 0 21G<12 171.38 487.552 648> 840 20G<12 171.38 487.552 648>
VStem: 12 135<252 608> 513 135<252 608>
LayerCount: 2
Fore
SplineSet
513 252 m 1
 513 608 l 1
 410 430 l 1
 513 252 l 1
147 608 m 1
 147 252 l 1
 249 430 l 1
 147 608 l 1
160 -0 m 1
 12 0 l 1
 12 860 l 1
 160 860 l 1
 329 563 l 1
 499 860 l 1
 648 860 l 1
 648 0 l 1
 499 0 l 1
 329 297 l 1
 160 -0 l 1
EndSplineSet
EndChar

StartChar: E
Encoding: 69 69 20
Width: 715
Flags: W
HStem: 0 21G<12 164 545 697>
VStem: 12 152<0 700> 545 152<0 700>
LayerCount: 2
Fore
SplineSet
545 0 m 1
 545 700 l 1
 354 575 l 1
 164 700 l 1
 164 0 l 1
 12 0 l 1
 12 903 l 1
 85 904 l 1
 355 700 l 1
 624 904 l 1
 697 903 l 1
 697 0 l 1
 545 0 l 1
EndSplineSet
EndChar

StartChar: F
Encoding: 70 70 21
Width: 525
Flags: W
HStem: -0 21G<12 164> 841 20G<12 164 334.471 527>
VStem: 12 152<1 208 409 459 657 861>
LayerCount: 2
Fore
SplineSet
164 -0 m 1
 12 1 l 1
 12 861 l 1
 164 861 l 1
 164 657 l 1
 353 861 l 1
 527 861 l 1
 164 459 l 1
 164 409 l 1
 355 604 l 1
 530 604 l 1
 164 208 l 1
 164 -0 l 1
EndSplineSet
EndChar

StartChar: G
Encoding: 71 71 22
Width: 625
Flags: W
HStem: 0 21G<12 164> 732 126<248.738 339.809>
VStem: 12 152<0 415.467 533 860> 233 123<747.63 842.37>
LayerCount: 2
Fore
SplineSet
164 860 m 1
 164 533 l 1
 277 580 438 713 487 853 c 0
 489 860 l 1
 619 860 l 1
 616 848 l 0
 571 668 336 474 164 409 c 1
 164 0 l 1
 12 0 l 1
 12 860 l 1
 164 860 l 1
294 732 m 0
 260 732 233 761 233 795 c 0
 233 829 260 858 294 858 c 0
 328 858 356 829 356 795 c 0
 356 761 328 732 294 732 c 0
EndSplineSet
EndChar

StartChar: H
Encoding: 72 72 23
Width: 627
Flags: W
HStem: 0 21G<12 164 457 609> 840 20G<12 164 457 609>
VStem: 12 152<0 418 525 860> 457 152<0 342 449 860>
LayerCount: 2
Fore
SplineSet
164 0 m 1
 12 0 l 1
 12 860 l 1
 164 860 l 1
 164 525 l 1
 457 449 l 1
 457 860 l 1
 609 860 l 1
 609 0 l 1
 457 0 l 1
 457 342 l 1
 164 418 l 1
 164 0 l 1
EndSplineSet
EndChar

StartChar: I
Encoding: 73 73 24
Width: 182
Flags: W
HStem: 0 21G<12 164> 840 20G<12 164>
VStem: 12 152<0 860>
LayerCount: 2
Fore
SplineSet
164 0 m 1
 12 0 l 1
 12 860 l 1
 164 860 l 1
 164 0 l 1
EndSplineSet
EndChar

StartChar: J
Encoding: 74 74 25
Width: 578
Flags: W
HStem: 854 20G<262.012 278>
LayerCount: 2
Fore
SplineSet
573 326 m 1
 298 -19 l 1
 298 201 l 1
 405 326 l 1
 298 450 l 1
 298 670 l 1
 573 326 l 1
278 405 m 1
 278 185 l 1
 3 530 l 1
 278 874 l 1
 278 654 l 1
 171 530 l 1
 278 405 l 1
EndSplineSet
EndChar

StartChar: K
Encoding: 75 75 26
Width: 486
Flags: W
HStem: -0 21G<12 164> 841 20G<12 164 300.33 490>
VStem: 12 152<1 480 667 861>
LayerCount: 2
Fore
SplineSet
164 -0 m 1
 12 1 l 1
 12 861 l 1
 164 861 l 1
 164 667 l 1
 316 861 l 1
 490 861 l 1
 164 480 l 1
 164 -0 l 1
EndSplineSet
EndChar

StartChar: L
Encoding: 76 76 27
Width: 368
Flags: W
HStem: 0 21G<12 162>
VStem: 12 150<0 694>
LayerCount: 2
Fore
SplineSet
162 0 m 1
 12 0 l 1
 12 909 l 1
 360 739 l 1
 324 624 l 1
 162 694 l 1
 162 0 l 1
EndSplineSet
EndChar

StartChar: M
Encoding: 77 77 28
Width: 715
Flags: W
HStem: 0 21G<12 163.047 545 697>
VStem: 12 151<0 427 549 691> 545 152<0 428 549 691>
LayerCount: 2
Fore
SplineSet
163 549 m 1
 260 629 l 1
 163 691 l 1
 163 549 l 1
449 628 m 1
 545 549 l 1
 545 691 l 1
 449 628 l 1
697 0 m 1
 545 0 l 1
 545 428 l 1
 355 574 l 1
 164 427 l 1
 163 0 l 1
 12 0 l 1
 12 903 l 1
 85 904 l 1
 355 700 l 1
 624 904 l 1
 697 903 l 1
 697 0 l 1
EndSplineSet
EndChar

StartChar: N
Encoding: 78 78 29
Width: 549
Flags: W
HStem: 0 21G<192 344> 840 20G<192 344>
VStem: 192 152<0 390 553 860>
LayerCount: 2
Fore
SplineSet
525 343 m 1
 344 390 l 1
 344 0 l 1
 192 0 l 1
 192 428 l 1
 4 477 l 1
 35 593 l 1
 192 553 l 1
 192 860 l 1
 344 860 l 1
 344 515 l 1
 541 464 l 1
 525 343 l 1
EndSplineSet
EndChar

StartChar: O
Encoding: 79 79 30
Width: 375
Flags: W
HStem: 0 21G<12 164> 840 20G<12 164>
VStem: 12 152<0 287 410 458 581 860>
LayerCount: 2
Fore
SplineSet
164 0 m 1
 12 0 l 1
 12 860 l 1
 164 860 l 1
 164 581 l 1
 323 623 l 1
 354 507 l 1
 164 458 l 1
 164 410 l 1
 336 456 l 1
 367 340 l 1
 164 287 l 1
 164 0 l 1
EndSplineSet
EndChar

StartChar: P
Encoding: 80 80 31
Width: 377
Flags: W
HStem: -0 21G<27 128.219>
VStem: 12 152<174 730>
LayerCount: 2
Fore
SplineSet
27 1 m 1
 12 -14 l 1
 12 918 l 1
 27 903 l 1
 84 904 l 1
 367 776 l 1
 332 661 l 1
 164 730 l 1
 164 174 l 1
 332 243 l 1
 367 128 l 1
 84 -0 l 1
 27 1 l 1
EndSplineSet
EndChar

StartChar: Q
Encoding: 81 81 32
Width: 433
Flags: W
HStem: 0 21G<263 415> 840 20G<263 415>
VStem: 263 152<0 123 299 561 737 860>
LayerCount: 2
Fore
SplineSet
3 430 m 1
 263 737 l 1
 263 860 l 1
 415 860 l 1
 415 0 l 1
 263 0 l 1
 263 123 l 1
 3 430 l 1
263 299 m 1
 263 561 l 1
 150 430 l 1
 263 299 l 1
EndSplineSet
EndChar

StartChar: R
Encoding: 82 82 33
Width: 600
Flags: W
HStem: 0 21G<12 164 428.934 601> 825 20G<12 184.649>
VStem: 12 152<0 698>
LayerCount: 2
Fore
SplineSet
367 420 m 1
 601 -0 l 1
 440 0 l 1
 248 347 l 1
 248 470 l 1
 358 559 l 1
 164 698 l 1
 164 0 l 1
 12 0 l 1
 12 845 l 1
 157 845 l 1
 551 560 l 1
 367 420 l 1
EndSplineSet
EndChar

StartChar: S
Encoding: 83 83 34
Width: 538
Flags: W
HStem: 0 21G<363 520> 796 20G<12 168>
VStem: 12 156<432 816> 363 157<0 385>
LayerCount: 2
Fore
SplineSet
12 254 m 1
 12 816 l 1
 168 816 l 1
 168 432 l 1
 262 472 351 518 442 562 c 0
 444 563 l 1
 520 562 l 1
 520 0 l 1
 363 0 l 1
 363 385 l 1
 268 344 181 298 90 254 c 0
 88 253 l 1
 12 254 l 1
EndSplineSet
EndChar

StartChar: T
Encoding: 84 84 35
Width: 558
Flags: W
HStem: 0 21G<202 352>
VStem: 202 150<0 695>
LayerCount: 2
Fore
SplineSet
352 695 m 1
 352 0 l 1
 202 0 l 1
 202 695 l 1
 40 624 l 1
 4 739 l 1
 278 906 l 1
 550 739 l 1
 514 624 l 1
 352 695 l 1
EndSplineSet
EndChar

StartChar: U
Encoding: 85 85 36
Width: 616
Flags: W
HStem: 0 21G<12 164 445.59 615> 840 20G<12 170.581>
VStem: 12 152<0 561>
LayerCount: 2
Fore
SplineSet
12 860 m 1
 160 860 l 1
 615 -0 l 1
 456 0 l 1
 164 561 l 1
 164 0 l 1
 12 0 l 1
 12 860 l 1
EndSplineSet
EndChar

StartChar: V
Encoding: 86 86 37
Width: 525
Flags: W
HStem: -0 21G<12 164> 761 99<193.719 270.624>
VStem: 12 152<1 208 409 459 657 861> 185 94<768.983 851.474>
LayerCount: 2
Fore
SplineSet
164 -0 m 1
 12 1 l 1
 12 861 l 1
 164 861 l 1
 164 657 l 1
 353 861 l 1
 527 861 l 1
 164 459 l 1
 164 409 l 1
 355 604 l 1
 530 604 l 1
 164 208 l 1
 164 -0 l 1
233 761 m 0
 206 761 185 784 185 810 c 0
 185 836 206 860 233 860 c 0
 261 860 279 835 279 810 c 0
 279 784 260 761 233 761 c 0
EndSplineSet
EndChar

StartChar: W
Encoding: 87 87 38
Width: 521
Flags: W
HStem: 0 21G<12 164> 827 20G<12 183.863>
VStem: 12 152<0 308 446 684>
LayerCount: 2
Fore
SplineSet
164 684 m 1
 164 446 l 1
 340 566 l 1
 164 684 l 1
12 845 m 1
 157 847 l 1
 521 576 l 1
 164 308 l 1
 164 0 l 1
 12 0 l 1
 12 845 l 1
EndSplineSet
EndChar

StartChar: X
Encoding: 88 88 39
Width: 795
Flags: W
HStem: 0 21G<362 520> 796 69G<12 168 622 778>
VStem: 12 156<422 796> 362 158<0 375> 622 156<438 885>
LayerCount: 2
Fore
SplineSet
778 438 m 1
 622 438 l 1
 622 885 l 1
 778 885 l 1
 778 438 l 1
12 248 m 1
 12 796 l 1
 168 796 l 1
 168 422 l 1
 262 461 351 505 442 548 c 0
 444 549 l 1
 520 548 l 1
 520 0 l 1
 362 0 l 1
 362 375 l 1
 269 336 181 291 90 248 c 0
 88 247 l 1
 12 248 l 1
EndSplineSet
EndChar

StartChar: Y
Encoding: 89 89 40
Width: 616
Flags: W
HStem: 0 21G<12 164 445.59 615> 172 127<195.738 286.809> 840 20G<12 170.581>
VStem: 12 152<0 561> 180 123<188.06 283.37>
LayerCount: 2
Fore
SplineSet
12 860 m 1
 160 860 l 1
 615 -0 l 1
 456 0 l 1
 164 561 l 1
 164 0 l 1
 12 0 l 1
 12 860 l 1
241 172 m 0
 207 172 180 202 180 236 c 0
 180 270 207 299 241 299 c 0
 275 299 303 270 303 236 c 0
 303 202 275 172 241 172 c 0
EndSplineSet
EndChar

StartChar: Z
Encoding: 90 90 41
Width: 560
Flags: W
HStem: 865 20G<203 353>
VStem: 203 150<463 885>
LayerCount: 2
Fore
SplineSet
203 463 m 1
 203 885 l 1
 353 885 l 1
 353 463 l 1
 515 536 l 1
 551 419 l 1
 278 248 l 1
 5 419 l 1
 41 536 l 1
 203 463 l 1
EndSplineSet
EndChar

StartChar: a
Encoding: 97 97 42
Width: 373
Flags: W
HStem: 0 21G<12 164> 840 20G<12 233.519>
VStem: 12 152<0 554 675 734>
LayerCount: 2
Fore
SplineSet
12 0 m 1
 12 860 l 1
 155 860 l 1
 367 806 l 1
 332 691 l 1
 164 734 l 1
 164 675 l 1
 320 637 l 1
 283 524 l 1
 164 554 l 1
 164 0 l 1
 12 0 l 1
EndSplineSet
EndChar

StartChar: b
Encoding: 98 98 43
Width: 368
Flags: W
HStem: 0 21G<12 164> 840 20G<12 164>
VStem: 12 152<0 307 430 489 610 860>
LayerCount: 2
Fore
SplineSet
12 0 m 1
 12 860 l 1
 164 860 l 1
 164 610 l 1
 278 640 l 1
 315 527 l 1
 164 489 l 1
 164 430 l 1
 331 473 l 1
 361 359 l 1
 164 307 l 1
 164 0 l 1
 12 0 l 1
EndSplineSet
EndChar

StartChar: c
Encoding: 99 99 44
Width: 370
Flags: W
HStem: 865 20G<12 162>
VStem: 12 150<463 885>
LayerCount: 2
Fore
SplineSet
12 244 m 1
 12 885 l 1
 162 885 l 1
 162 463 l 1
 324 536 l 1
 360 418 l 1
 12 244 l 1
EndSplineSet
EndChar

StartChar: d
Encoding: 100 100 45
Width: 386
Flags: W
HStem: 0 21G<202 352>
VStem: 202 150<0 402.923 405.076 694>
LayerCount: 2
Fore
SplineSet
352 344 m 1
 352 0 l 1
 202 0 l 1
 202 348 l 1
 189 365 184 384 184 404 c 0
 184 424 190 444 202 460 c 1
 202 694 l 1
 40 624 l 1
 4 739 l 1
 352 909 l 1
 352 464 l 1
 365 447 374 427 374 404 c 0
 374 381 364 360 352 344 c 1
EndSplineSet
EndChar

StartChar: e
Encoding: 101 101 46
Width: 715
Flags: W
HStem: 0 21G<12 164 545 697>
VStem: 12 152<0 700> 545 152<0 700>
LayerCount: 2
Fore
SplineSet
545 0 m 1
 545 700 l 1
 354 575 l 1
 164 700 l 1
 164 0 l 1
 12 0 l 1
 12 903 l 1
 85 904 l 1
 355 700 l 1
 624 904 l 1
 697 903 l 1
 697 0 l 1
 545 0 l 1
EndSplineSet
EndChar

StartChar: f
Encoding: 102 102 47
Width: 525
Flags: W
HStem: -0 21G<12 164> 841 20G<12 164 334.471 527>
VStem: 12 152<1 208 409 459 657 861>
LayerCount: 2
Fore
SplineSet
164 -0 m 1
 12 1 l 1
 12 861 l 1
 164 861 l 1
 164 657 l 1
 353 861 l 1
 527 861 l 1
 164 459 l 1
 164 409 l 1
 355 604 l 1
 530 604 l 1
 164 208 l 1
 164 -0 l 1
EndSplineSet
EndChar

StartChar: g
Encoding: 103 103 48
Width: 650
Flags: W
HStem: 0 21G<-1 170.081 476.851 648> 840 20G<-1 170.081 476.851 648>
LayerCount: 2
Fore
SplineSet
403 430 m 1
 648 -0 l 1
 488 0 l 1
 323 296 l 1
 159 0 l 1
 -1 0 l 1
 244 430 l 1
 -1 860 l 1
 159 860 l 1
 323 564 l 1
 488 860 l 1
 648 860 l 1
 403 430 l 1
EndSplineSet
EndChar

StartChar: h
Encoding: 104 104 49
Width: 511
Flags: W
HStem: 0 21G<177 329> 358 144<9 177 329 496> 840 20G<177 329>
VStem: 177 152<0 358 502 860>
LayerCount: 2
Fore
SplineSet
177 502 m 1
 177 860 l 1
 329 860 l 1
 329 502 l 1
 496 502 l 1
 496 358 l 1
 329 358 l 1
 329 0 l 1
 177 0 l 1
 177 358 l 1
 9 358 l 1
 9 502 l 1
 177 502 l 1
EndSplineSet
EndChar

StartChar: i
Encoding: 105 105 50
Width: 182
Flags: W
HStem: 0 21G<12 164> 840 20G<12 164>
VStem: 12 152<0 860>
LayerCount: 2
Fore
SplineSet
164 0 m 1
 12 0 l 1
 12 860 l 1
 164 860 l 1
 164 0 l 1
EndSplineSet
EndChar

StartChar: j
Encoding: 106 106 51
Width: 578
Flags: W
HStem: 854 20G<262.012 278>
LayerCount: 2
Fore
SplineSet
573 326 m 1
 298 -19 l 1
 298 201 l 1
 405 326 l 1
 298 450 l 1
 298 670 l 1
 573 326 l 1
278 405 m 1
 278 185 l 1
 3 530 l 1
 278 874 l 1
 278 654 l 1
 171 530 l 1
 278 405 l 1
EndSplineSet
EndChar

StartChar: k
Encoding: 107 107 52
Width: 486
Flags: W
HStem: -0 21G<12 164> 841 20G<12 164 300.33 490>
VStem: 12 152<1 480 667 861>
LayerCount: 2
Fore
SplineSet
164 -0 m 1
 12 1 l 1
 12 861 l 1
 164 861 l 1
 164 667 l 1
 316 861 l 1
 490 861 l 1
 164 480 l 1
 164 -0 l 1
EndSplineSet
EndChar

StartChar: l
Encoding: 108 108 53
Width: 368
Flags: W
HStem: 0 21G<12 162>
VStem: 12 150<0 694>
LayerCount: 2
Fore
SplineSet
162 0 m 1
 12 0 l 1
 12 909 l 1
 360 739 l 1
 324 624 l 1
 162 694 l 1
 162 0 l 1
EndSplineSet
EndChar

StartChar: m
Encoding: 109 109 54
Width: 715
Flags: W
HStem: 0 21G<12 163.047 545 697>
VStem: 12 151<0 427 549 691> 545 152<0 428 549 691>
LayerCount: 2
Fore
SplineSet
163 549 m 1
 260 629 l 1
 163 691 l 1
 163 549 l 1
449 628 m 1
 545 549 l 1
 545 691 l 1
 449 628 l 1
697 0 m 1
 545 0 l 1
 545 428 l 1
 355 574 l 1
 164 427 l 1
 163 0 l 1
 12 0 l 1
 12 903 l 1
 85 904 l 1
 355 700 l 1
 624 904 l 1
 697 903 l 1
 697 0 l 1
EndSplineSet
EndChar

StartChar: n
Encoding: 110 110 55
Width: 368
Flags: W
HStem: 0 21G<12 164> 840 20G<12 164>
VStem: 12 152<0 387 510 860>
LayerCount: 2
Fore
SplineSet
164 0 m 1
 12 0 l 1
 12 860 l 1
 164 860 l 1
 164 510 l 1
 361 460 l 1
 333 344 l 1
 164 387 l 1
 164 0 l 1
EndSplineSet
EndChar

StartChar: o
Encoding: 111 111 56
Width: 542
Flags: W
HStem: 0 21G<-5 175.92 358.065 543> 746 20G<253.519 286.358>
LayerCount: 2
Fore
SplineSet
367 444 m 1
 270 558 l 1
 171 444 l 1
 270 331 l 1
 367 444 l 1
3 442 m 1
 270 766 l 1
 535 442 l 1
 357 226 l 1
 543 0 l 1
 375 0 l 1
 270 124 l 1
 158 -1 l 1
 -5 0 l 1
 181 226 l 1
 3 442 l 1
EndSplineSet
EndChar

StartChar: p
Encoding: 112 112 57
Width: 377
Flags: W
HStem: -0 21G<27 128.567>
VStem: 12 152<174 727>
LayerCount: 2
Fore
SplineSet
27 1 m 1
 12 -14 l 1
 12 918 l 1
 27 903 l 1
 84 904 l 1
 367 773 l 1
 332 658 l 1
 164 727 l 1
 164 174 l 1
 332 242 l 1
 367 127 l 1
 84 -0 l 1
 27 1 l 1
EndSplineSet
EndChar

StartChar: q
Encoding: 113 113 58
Width: 433
Flags: W
HStem: 0 21G<263 415> 840 20G<263 415>
VStem: 263 152<0 123 299 561 737 860>
LayerCount: 2
Fore
SplineSet
3 430 m 1
 263 737 l 1
 263 860 l 1
 415 860 l 1
 415 0 l 1
 263 0 l 1
 263 123 l 1
 3 430 l 1
263 299 m 1
 263 561 l 1
 150 430 l 1
 263 299 l 1
EndSplineSet
EndChar

StartChar: r
Encoding: 114 114 59
Width: 600
Flags: W
HStem: 0 21G<12 164 428.934 601> 805 20G<12 185.345>
VStem: 12 152<0 698>
LayerCount: 2
Fore
SplineSet
367 410 m 1
 601 -0 l 1
 440 0 l 1
 248 347 l 1
 248 470 l 1
 358 559 l 1
 164 698 l 1
 164 0 l 1
 12 0 l 1
 12 825 l 1
 157 825 l 1
 551 547 l 1
 367 410 l 1
EndSplineSet
EndChar

StartChar: s
Encoding: 115 115 60
Width: 181
Flags: W
HStem: 865 20G<12 164>
VStem: 12 152<438 885>
LayerCount: 2
Fore
SplineSet
164 438 m 1
 12 438 l 1
 12 885 l 1
 164 885 l 1
 164 438 l 1
EndSplineSet
EndChar

StartChar: t
Encoding: 116 116 61
Width: 370
Flags: W
HStem: 0 21G<202 352>
VStem: 202 150<0 694>
LayerCount: 2
Fore
SplineSet
352 909 m 1
 352 0 l 1
 202 0 l 1
 202 694 l 1
 40 624 l 1
 4 739 l 1
 352 909 l 1
EndSplineSet
EndChar

StartChar: u
Encoding: 117 117 62
Width: 616
Flags: W
HStem: 0 21G<12 164 445.59 615> 840 20G<12 170.581>
VStem: 12 152<0 561>
LayerCount: 2
Fore
SplineSet
12 860 m 1
 160 860 l 1
 615 -0 l 1
 456 0 l 1
 164 561 l 1
 164 0 l 1
 12 0 l 1
 12 860 l 1
EndSplineSet
EndChar

StartChar: v
Encoding: 118 118 63
Width: 525
Flags: W
HStem: -0 21G<12 164> 761 99<193.719 270.624>
VStem: 12 152<1 208 409 459 657 861> 185 94<768.983 851.474>
LayerCount: 2
Fore
SplineSet
164 -0 m 1
 12 1 l 1
 12 861 l 1
 164 861 l 1
 164 657 l 1
 353 861 l 1
 527 861 l 1
 164 459 l 1
 164 409 l 1
 355 604 l 1
 530 604 l 1
 164 208 l 1
 164 -0 l 1
233 761 m 0
 206 761 185 784 185 810 c 0
 185 836 206 860 233 860 c 0
 261 860 279 835 279 810 c 0
 279 784 260 761 233 761 c 0
EndSplineSet
EndChar

StartChar: w
Encoding: 119 119 64
Width: 521
Flags: W
HStem: 0 21G<12 164> 807 20G<12 184.472>
VStem: 12 152<0 301 446 684>
LayerCount: 2
Fore
SplineSet
164 684 m 1
 164 446 l 1
 340 566 l 1
 164 684 l 1
12 825 m 1
 157 827 l 1
 521 562 l 1
 164 301 l 1
 164 0 l 1
 12 0 l 1
 12 825 l 1
EndSplineSet
EndChar

StartChar: x
Encoding: 120 120 65
Width: 766
Flags: W
HStem: 0 21G<482 638> 105 112<354 482 638 754> 597 111<8 130 288 408> 776 20G<130 288>
VStem: 130 158<422 597 708 796> 482 156<0 105 217 375>
LayerCount: 2
Fore
SplineSet
130 708 m 1
 130 796 l 1
 288 796 l 1
 288 708 l 1
 408 708 l 1
 408 597 l 1
 288 597 l 1
 288 422 l 1
 382 461 469 504 560 547 c 0
 562 548 l 1
 638 547 l 1
 638 217 l 1
 754 217 l 1
 754 105 l 1
 638 105 l 1
 638 0 l 1
 482 0 l 1
 482 105 l 1
 354 105 l 1
 354 217 l 1
 482 217 l 1
 482 375 l 1
 387 335 299 291 208 248 c 0
 206 247 l 1
 130 248 l 1
 130 597 l 1
 8 597 l 1
 8 708 l 1
 130 708 l 1
EndSplineSet
EndChar

StartChar: y
Encoding: 121 121 66
Width: 616
Flags: W
HStem: 0 21G<12 164 445.59 615> 172 127<195.738 286.809> 840 20G<12 170.581>
VStem: 12 152<0 561> 180 123<188.06 283.37>
LayerCount: 2
Fore
SplineSet
12 860 m 1
 160 860 l 1
 615 -0 l 1
 456 0 l 1
 164 561 l 1
 164 0 l 1
 12 0 l 1
 12 860 l 1
241 172 m 0
 207 172 180 202 180 236 c 0
 180 270 207 299 241 299 c 0
 275 299 303 270 303 236 c 0
 303 202 275 172 241 172 c 0
EndSplineSet
EndChar

StartChar: z
Encoding: 122 122 67
Width: 560
Flags: W
HStem: 865 20G<203 353>
VStem: 203 150<463 885>
LayerCount: 2
Fore
SplineSet
203 463 m 1
 203 885 l 1
 353 885 l 1
 353 463 l 1
 515 536 l 1
 551 419 l 1
 278 248 l 1
 5 419 l 1
 41 536 l 1
 203 463 l 1
EndSplineSet
EndChar

StartChar: Adieresis
Encoding: 196 196 68
Width: 627
Flags: W
HStem: 2 126<280.738 371.809> 840 20G<452 609>
VStem: 265 123<17.6302 112.37> 452 157<0 327 444.533 860>
LayerCount: 2
Fore
SplineSet
452 0 m 1
 452 327 l 1
 340 280 182 147 133 7 c 0
 131 0 l 1
 3 0 l 1
 6 12 l 0
 51 192 280 386 452 451 c 1
 452 860 l 1
 609 860 l 1
 609 0 l 1
 452 0 l 1
326 128 m 0
 360 128 388 99 388 65 c 0
 388 31 360 2 326 2 c 0
 292 2 265 31 265 65 c 0
 265 99 292 128 326 128 c 0
EndSplineSet
EndChar

StartChar: Aring
Encoding: 197 197 69
Width: 570
Flags: W
HStem: 0 21G<213 370> 840 20G<213 370>
VStem: 213 157<0 320 563 860>
LayerCount: 2
Fore
SplineSet
411 442 m 1
 563 356 l 1
 499 248 l 1
 370 320 l 1
 370 0 l 1
 213 0 l 1
 213 330 l 1
 67 248 l 1
 3 356 l 1
 155 442 l 1
 3 527 l 1
 67 636 l 1
 213 553 l 1
 213 860 l 1
 370 860 l 1
 370 563 l 1
 499 636 l 1
 563 527 l 1
 411 442 l 1
EndSplineSet
EndChar

StartChar: AE
Encoding: 198 198 70
Width: 563
Flags: W
HStem: -1 21G<238.562 358>
VStem: 202 156<173 730>
LayerCount: 2
Fore
SplineSet
358 730 m 1
 358 0 l 1
 282 -1 l 1
 4 127 l 1
 39 242 l 1
 202 173 l 1
 202 903 l 1
 278 904 l 1
 556 776 l 1
 521 661 l 1
 358 730 l 1
EndSplineSet
EndChar

StartChar: Eth
Encoding: 208 208 71
Width: 429
Flags: W
HStem: 0 21G<12 164> 387 85<177.853 248.147> 840 20G<12 164>
VStem: 12 152<0 123 298 561 737 860> 172 82<392.542 466.69>
LayerCount: 2
Fore
SplineSet
164 860 m 1
 164 737 l 1
 424 430 l 1
 164 123 l 1
 164 0 l 1
 12 0 l 1
 12 860 l 1
 164 860 l 1
277 430 m 1
 164 561 l 1
 164 298 l 1
 277 430 l 1
213 387 m 0
 190 387 172 408 172 430 c 0
 172 452 190 472 213 472 c 0
 236 472 254 452 254 430 c 0
 254 408 236 387 213 387 c 0
EndSplineSet
EndChar

StartChar: Odieresis
Encoding: 214 214 72
Width: 885
Flags: W
HStem: 0 21G<4 175 362 520 707 878> 841 20G<362 520>
VStem: 362 158<0 295 460.147 861>
LayerCount: 2
Fore
SplineSet
6 12 m 0
 31 155 163 358 362 471 c 1
 362 861 l 1
 520 861 l 1
 520 471 l 1
 721 358 851 154 876 11 c 0
 878 -0 l 1
 707 0 l 1
 708 11 l 0
 712 95 612 235 520 295 c 1
 520 0 l 1
 362 0 l 1
 362 295 l 1
 268 234 170 96 174 12 c 0
 175 1 l 1
 4 1 l 1
 6 12 l 0
EndSplineSet
EndChar

StartChar: Oslash
Encoding: 216 216 73
Width: 568
Flags: W
HStem: 0 21G<202 359> 840 20G<202 359>
VStem: 202 157<0 246 413 416 580 860>
LayerCount: 2
Fore
SplineSet
359 0 m 1
 202 0 l 1
 202 246 l 1
 49 206 l 1
 18 323 l 1
 202 371 l 1
 202 416 l 1
 36 373 l 1
 5 489 l 1
 202 539 l 1
 202 860 l 1
 359 860 l 1
 359 580 l 1
 527 623 l 1
 546 505 l 1
 359 457 l 1
 359 413 l 1
 517 455 l 1
 561 342 l 1
 359 289 l 1
 359 0 l 1
EndSplineSet
EndChar

StartChar: Thorn
Encoding: 222 222 74
Width: 429
Flags: W
HStem: 0 21G<12 164> 840 20G<12 164>
VStem: 12 152<0 123 299 561 737 860>
LayerCount: 2
Fore
SplineSet
164 860 m 1
 164 737 l 1
 424 430 l 1
 164 123 l 1
 164 0 l 1
 12 0 l 1
 12 860 l 1
 164 860 l 1
277 430 m 1
 164 561 l 1
 164 299 l 1
 277 430 l 1
EndSplineSet
EndChar

StartChar: adieresis
Encoding: 228 228 75
Width: 627
Flags: W
HStem: 2 126<280.738 371.809> 840 20G<452 609>
VStem: 265 123<17.6302 112.37> 452 157<0 327 444.533 860>
LayerCount: 2
Fore
SplineSet
452 0 m 1
 452 327 l 1
 340 280 182 147 133 7 c 0
 131 0 l 1
 3 0 l 1
 6 12 l 0
 51 192 280 386 452 451 c 1
 452 860 l 1
 609 860 l 1
 609 0 l 1
 452 0 l 1
326 128 m 0
 360 128 388 99 388 65 c 0
 388 31 360 2 326 2 c 0
 292 2 265 31 265 65 c 0
 265 99 292 128 326 128 c 0
EndSplineSet
EndChar

StartChar: aring
Encoding: 229 229 76
Width: 570
Flags: W
HStem: 0 21G<213 370> 840 20G<213 370>
VStem: 213 157<0 320 563 860>
LayerCount: 2
Fore
SplineSet
411 442 m 1
 563 356 l 1
 499 248 l 1
 370 320 l 1
 370 0 l 1
 213 0 l 1
 213 330 l 1
 67 248 l 1
 3 356 l 1
 155 442 l 1
 3 527 l 1
 67 636 l 1
 213 553 l 1
 213 860 l 1
 370 860 l 1
 370 563 l 1
 499 636 l 1
 563 527 l 1
 411 442 l 1
EndSplineSet
EndChar

StartChar: ae
Encoding: 230 230 77
Width: 563
Flags: W
HStem: -1 21G<238.562 358>
VStem: 202 156<173 727>
LayerCount: 2
Fore
SplineSet
358 727 m 1
 358 0 l 1
 282 -1 l 1
 4 127 l 1
 39 242 l 1
 202 173 l 1
 202 903 l 1
 278 904 l 1
 556 773 l 1
 521 658 l 1
 358 727 l 1
EndSplineSet
EndChar

StartChar: eth
Encoding: 240 240 78
Width: 429
Flags: W
HStem: 0 21G<12 164> 387 85<177.853 248.147> 840 20G<12 164>
VStem: 12 152<0 123 298 561 737 860> 172 82<392.542 466.69>
LayerCount: 2
Fore
SplineSet
164 860 m 1
 164 737 l 1
 424 430 l 1
 164 123 l 1
 164 0 l 1
 12 0 l 1
 12 860 l 1
 164 860 l 1
277 430 m 1
 164 561 l 1
 164 298 l 1
 277 430 l 1
213 387 m 0
 190 387 172 408 172 430 c 0
 172 452 190 472 213 472 c 0
 236 472 254 452 254 430 c 0
 254 408 236 387 213 387 c 0
EndSplineSet
EndChar

StartChar: odieresis
Encoding: 246 246 79
Width: 885
Flags: W
HStem: 0 21G<4 175 362 520 707 878> 841 20G<362 520>
VStem: 362 158<0 295 460.147 861>
LayerCount: 2
Fore
SplineSet
6 12 m 0
 31 155 163 358 362 471 c 1
 362 861 l 1
 520 861 l 1
 520 471 l 1
 721 358 851 154 876 11 c 0
 878 -0 l 1
 707 0 l 1
 708 11 l 0
 712 95 612 235 520 295 c 1
 520 0 l 1
 362 0 l 1
 362 295 l 1
 268 234 170 96 174 12 c 0
 175 1 l 1
 4 1 l 1
 6 12 l 0
EndSplineSet
EndChar

StartChar: oslash
Encoding: 248 248 80
Width: 568
Flags: W
HStem: 0 21G<202 359> 840 20G<202 359>
VStem: 202 157<0 246 413 416 580 860>
LayerCount: 2
Fore
SplineSet
359 0 m 1
 202 0 l 1
 202 246 l 1
 49 206 l 1
 18 323 l 1
 202 371 l 1
 202 416 l 1
 36 373 l 1
 5 489 l 1
 202 539 l 1
 202 860 l 1
 359 860 l 1
 359 580 l 1
 527 623 l 1
 546 505 l 1
 359 457 l 1
 359 413 l 1
 517 455 l 1
 561 342 l 1
 359 289 l 1
 359 0 l 1
EndSplineSet
EndChar

StartChar: thorn
Encoding: 254 254 81
Width: 429
Flags: W
HStem: 0 21G<12 164> 840 20G<12 164>
VStem: 12 152<0 123 299 561 737 860>
LayerCount: 2
Fore
SplineSet
164 860 m 1
 164 737 l 1
 424 430 l 1
 164 123 l 1
 164 0 l 1
 12 0 l 1
 12 860 l 1
 164 860 l 1
277 430 m 1
 164 561 l 1
 164 299 l 1
 277 430 l 1
EndSplineSet
EndChar

StartChar: Eng
Encoding: 330 330 82
Width: 542
Flags: W
LayerCount: 2
Fore
SplineSet
171 430 m 1
 270 316 l 1
 367 430 l 1
 270 544 l 1
 171 430 l 1
535 430 m 1
 270 104 l 1
 3 430 l 1
 270 756 l 1
 535 430 l 1
EndSplineSet
EndChar

StartChar: eng
Encoding: 331 331 83
Width: 662
Flags: W
HStem: 0 21G<49 201> 840 20G<49 201 525 656>
VStem: 49 152<0 385.191 549.788 860>
LayerCount: 2
Fore
SplineSet
201 860 m 1
 201 569 l 1
 212 561 220 553 227 545 c 1
 337 600 479 724 525 853 c 0
 527 860 l 1
 656 860 l 1
 653 848 l 0
 612 684 412 508 249 430 c 1
 239 402 222 381 201 366 c 1
 201 0 l 1
 49 0 l 1
 49 377 l 1
 23 401 7 434 7 471 c 0
 7 509 25 542 49 565 c 1
 49 860 l 1
 201 860 l 1
EndSplineSet
EndChar

StartChar: OE
Encoding: 338 338 84
Width: 568
Flags: W
HStem: 0 21G<202 359> 840 20G<202 359>
VStem: 202 157<0 246 413 416 580 860>
LayerCount: 2
Fore
SplineSet
359 0 m 1
 202 0 l 1
 202 246 l 1
 49 206 l 1
 18 323 l 1
 202 371 l 1
 202 416 l 1
 36 373 l 1
 5 489 l 1
 202 539 l 1
 202 860 l 1
 359 860 l 1
 359 580 l 1
 527 623 l 1
 546 505 l 1
 359 457 l 1
 359 413 l 1
 517 455 l 1
 561 342 l 1
 359 289 l 1
 359 0 l 1
EndSplineSet
EndChar

StartChar: oe
Encoding: 339 339 85
Width: 568
Flags: W
HStem: 0 21G<202 359> 840 20G<202 359>
VStem: 202 157<0 246 413 416 580 860>
LayerCount: 2
Fore
SplineSet
359 0 m 1
 202 0 l 1
 202 246 l 1
 49 206 l 1
 18 323 l 1
 202 371 l 1
 202 416 l 1
 36 373 l 1
 5 489 l 1
 202 539 l 1
 202 860 l 1
 359 860 l 1
 359 580 l 1
 527 623 l 1
 546 505 l 1
 359 457 l 1
 359 413 l 1
 517 455 l 1
 561 342 l 1
 359 289 l 1
 359 0 l 1
EndSplineSet
EndChar

StartChar: germandbls
Encoding: 223 223 86
Width: 435
Flags: W
HStem: 865 20G<12 164 266 418>
VStem: 12 152<438 885> 266 152<438 885>
LayerCount: 2
Fore
SplineSet
164 438 m 1
 12 438 l 1
 12 885 l 1
 164 885 l 1
 164 438 l 1
418 438 m 1
 266 438 l 1
 266 885 l 1
 418 885 l 1
 418 438 l 1
EndSplineSet
EndChar
